<?xml version="1.0" standalone="no"?>
<!DOCTYPE svg PUBLIC "-//W3C//DTD SVG 20010904//EN"
 "http://www.w3.org/TR/2001/REC-SVG-20010904/DTD/svg10.dtd">
<svg version="1.0" xmlns="http://www.w3.org/2000/svg"
 width="840.000000pt" height="840.000000pt" viewBox="0 0 840.000000 840.000000"
 preserveAspectRatio="xMidYMid meet">

<g transform="translate(0.000000,840.000000) scale(0.100000,-0.100000)"
fill="#000000" stroke="none">
<path d="M1378 5759 c-10 -5 -18 -16 -18 -22 0 -7 51 -78 113 -158 165 -213
166 -215 193 -275 32 -73 64 -190 64 -235 0 -23 -7 -42 -20 -54 -11 -10 -20
-24 -20 -31 0 -7 -7 -17 -15 -21 -8 -5 -29 -55 -46 -113 -17 -57 -39 -115 -49
-129 -25 -35 -72 -189 -65 -212 4 -11 2 -19 -5 -19 -7 0 -9 -8 -5 -20 4 -12 2
-20 -5 -20 -7 0 -9 -8 -5 -19 4 -12 0 -21 -11 -25 -13 -5 -14 -9 -4 -21 9 -10
9 -23 1 -47 -23 -75 -44 -219 -32 -231 6 -6 11 -23 11 -37 0 -14 5 -31 10 -36
7 -7 10 -61 8 -140 l-3 -129 -35 -5 c-32 -5 -33 -7 -15 -16 57 -30 205 -77
280 -89 111 -18 135 -26 125 -43 -6 -9 -24 -71 -41 -137 -17 -66 -47 -167 -66
-225 -19 -58 -38 -130 -42 -162 l-7 -56 55 -11 c30 -6 61 -11 70 -11 14 0 14
2 1 10 -12 8 -9 9 10 6 58 -12 169 -24 215 -25 28 0 82 -5 120 -11 39 -5 114
-12 168 -16 57 -3 95 -10 91 -15 -3 -6 24 -9 68 -8 82 2 465 -25 573 -40 39
-6 114 -13 167 -17 l97 -6 19 32 c18 28 19 46 15 173 -2 78 -5 192 -6 253 -2
126 -12 147 -73 159 l-35 6 36 64 c77 139 574 891 593 899 16 7 255 -114 260
-131 2 -6 -107 -175 -241 -375 -134 -200 -276 -417 -316 -483 -67 -112 -71
-120 -51 -127 35 -13 244 -31 247 -22 2 5 20 36 42 69 21 33 88 137 149 232
62 95 166 263 233 375 67 112 130 212 140 222 17 19 20 18 139 -35 67 -30 125
-60 128 -68 10 -25 -121 -248 -360 -614 -81 -125 -148 -232 -148 -237 0 -6 19
-10 43 -10 40 0 78 -5 212 -30 50 -9 94 -17 280 -46 55 -9 107 -20 117 -25 9
-5 30 -9 46 -9 50 0 58 -20 37 -97 -10 -36 -25 -79 -33 -96 -8 -16 -16 -54
-17 -82 l-3 -53 47 -13 c72 -21 718 -17 926 5 390 41 413 46 436 87 10 20 5
111 -8 145 -6 15 64 30 207 44 114 10 348 52 420 74 25 8 70 20 100 26 30 7
67 17 82 22 15 6 31 10 35 10 4 0 20 9 35 19 14 10 33 19 42 19 19 0 111 48
140 73 42 36 66 15 66 -60 0 -50 -16 -80 -73 -136 -63 -63 -269 -169 -417
-215 -52 -17 -133 -42 -180 -57 -115 -37 -215 -61 -400 -95 -306 -57 -404 -64
-885 -65 -654 -1 -1840 28 -2225 55 -179 12 -588 37 -815 50 -273 16 -553 53
-715 95 -200 52 -459 136 -495 161 -29 21 -35 17 -35 -21 0 -44 10 -51 178
-111 73 -26 129 -50 125 -54 -4 -4 -28 -15 -53 -24 -25 -9 -69 -32 -99 -50
-48 -30 -52 -35 -35 -44 35 -18 210 -43 429 -62 261 -22 584 -31 1493 -40 521
-5 1129 -16 1352 -24 223 -8 536 -18 695 -21 423 -10 974 17 1260 61 55 8 132
19 170 24 78 11 310 68 283 69 -10 1 -18 5 -18 11 0 5 -20 15 -44 21 -41 10
-44 13 -33 30 6 10 19 19 27 19 9 0 47 16 86 35 38 19 75 33 82 30 19 -7 112
43 112 60 0 8 7 15 15 15 25 0 75 29 75 43 0 14 77 63 92 59 18 -5 49 30 43
49 -4 11 4 24 23 38 36 25 44 63 33 151 -6 42 -17 78 -33 102 -14 20 -36 65
-49 100 -30 81 -94 147 -170 176 -31 11 -118 37 -195 57 -591 153 -881 252
-1194 406 -199 97 -251 119 -372 154 -121 35 -173 62 -282 144 -50 38 -115 81
-143 97 -33 18 -53 36 -53 47 0 10 -15 24 -35 34 -30 15 -35 21 -35 53 0 76
-58 105 -112 53 -26 -24 -28 -25 -34 -7 -19 59 -30 78 -59 100 -36 27 -91 32
-121 9 -35 -26 -77 -18 -149 30 -38 25 -76 47 -84 50 -9 3 -33 39 -55 81 -41
81 -67 100 -116 89 -16 -3 -45 1 -69 11 -35 14 -49 15 -81 5 -35 -10 -43 -9
-77 12 -43 27 -75 41 -85 39 -5 -1 -8 2 -8 8 0 5 -7 10 -15 10 -8 0 -15 4 -15
10 0 5 -6 7 -12 5 -16 -6 -81 32 -74 44 3 4 -37 36 -90 71 -92 61 -105 72
-179 154 -35 37 -37 39 -86 33 -48 -6 -102 -32 -134 -64 -22 -22 -18 -75 15
-198 17 -60 30 -116 30 -123 0 -7 -12 -18 -26 -24 -48 -22 -67 -88 -39 -141 8
-15 12 -34 9 -41 -8 -21 -123 -119 -175 -148 -56 -33 -185 -48 -384 -45 -113
2 -136 5 -178 26 -79 39 -128 111 -201 302 -47 123 -83 165 -182 213 -105 51
-127 43 -158 -56 -8 -28 -26 -21 -33 12 -3 17 -9 33 -14 36 -4 2 -6 10 -3 18
3 7 -4 34 -15 59 -11 26 -20 49 -21 52 0 18 -62 125 -70 120 -5 -3 -12 0 -16
6 -5 8 -3 9 6 4 8 -5 11 -3 8 5 -2 7 -12 14 -22 16 -11 2 -16 -2 -12 -11 6
-17 -21 -28 -30 -13 -4 6 -3 8 3 5 6 -4 13 3 16 14 3 12 10 18 16 14 16 -9 13
11 -2 24 -8 6 -17 8 -21 4 -4 -4 -4 0 -1 9 4 9 1 19 -6 24 -8 4 -10 3 -5 -5 4
-6 4 -11 -1 -10 -22 4 -34 -2 -27 -13 4 -8 3 -10 -2 -5 -5 5 -9 12 -9 15 0 4
-4 14 -9 22 -7 12 -6 13 5 3 19 -19 29 -16 26 6 -4 25 -103 114 -130 116 -12
1 -23 7 -25 13 -5 15 -41 15 -64 1z m160 -81 c13 -15 28 -26 32 -23 5 3 11 1
15 -4 3 -6 -4 -8 -17 -6 -13 3 -24 9 -26 15 -2 6 -7 8 -12 5 -4 -3 -13 2 -20
10 -7 8 -9 15 -5 15 4 0 1 8 -6 17 -25 30 13 3 39 -29z m139 -197 c16 -21 16
-28 -3 -35 -8 -3 -13 -2 -9 3 3 5 2 17 -1 26 -5 12 -9 13 -14 5 -5 -8 -9 -8
-13 2 -7 20 25 19 40 -1z m43 -76 c0 -7 7 -18 15 -25 8 -7 15 -20 14 -29 0
-13 -2 -14 -6 -1 -3 8 -9 17 -12 20 -4 3 -14 17 -24 32 -14 23 -14 26 -2 22 8
-4 15 -12 15 -19z m27 -137 c-3 -8 -6 -5 -6 6 -1 11 2 17 5 13 3 -3 4 -12 1
-19z m39 -35 c-10 -10 -19 5 -10 18 6 11 8 11 12 0 2 -7 1 -15 -2 -18z m-29
-50 c-3 -10 -5 -2 -5 17 0 19 2 27 5 18 2 -10 2 -26 0 -35z m10 -65 c-3 -8 -6
-5 -6 6 -1 11 2 17 5 13 3 -3 4 -12 1 -19z m1697 -429 c106 -53 186 -103 186
-115 0 -6 -73 -110 -161 -230 -145 -196 -350 -499 -482 -710 l-47 -76 -38 7
c-196 35 -262 49 -262 58 0 30 211 354 506 779 194 279 222 318 232 318 2 0
32 -14 66 -31z"/>
<path d="M1185 3379 c-4 -6 -5 -12 -2 -15 2 -3 7 2 10 11 7 17 1 20 -8 4z"/>
<path d="M1176 3335 c4 -8 10 -12 15 -9 11 6 2 24 -11 24 -5 0 -7 -7 -4 -15z"/>
<path d="M1106 3205 c-9 -26 -7 -32 5 -12 6 10 9 21 6 23 -2 3 -7 -2 -11 -11z"/>
<path d="M1848 3003 c7 -3 16 -2 19 1 4 3 -2 6 -13 5 -11 0 -14 -3 -6 -6z"/>
</g>
</svg>
